<svg width="30" height="30" viewBox="0 0 30 30" fill="none" xmlns="http://www.w3.org/2000/svg">
<path fill-rule="evenodd" clip-rule="evenodd" d="M15 0C23.2845 0 30 6.7155 30 15C30 23.2845 23.2845 30 15 30C6.7155 30 0 23.2845 0 15C0 6.7155 6.7155 0 15 0ZM15.75 16.5H6.45C6.05218 16.5 5.67064 16.658 5.38934 16.9393C5.10804 17.2206 4.95 17.6022 4.95 18C4.95 18.3978 5.10804 18.7794 5.38934 19.0607C5.67064 19.342 6.05218 19.5 6.45 19.5H7.221L6.7905 20.2665C6.69418 20.4385 6.63267 20.6277 6.60948 20.8235C6.5863 21.0192 6.60189 21.2176 6.65538 21.4073C6.70887 21.597 6.7992 21.7743 6.92121 21.9291C7.04322 22.0839 7.19453 22.2132 7.3665 22.3095C7.53847 22.4058 7.72772 22.4673 7.92346 22.4905C8.1192 22.5137 8.31758 22.4981 8.50729 22.4446C8.697 22.3911 8.87432 22.3008 9.02912 22.1788C9.18392 22.0568 9.31318 21.9055 9.4095 21.7335L10.659 19.5H15.75C16.1478 19.5 16.5294 19.342 16.8107 19.0607C17.092 18.7794 17.25 18.3978 17.25 18C17.25 17.6022 17.092 17.2206 16.8107 16.9393C16.5294 16.658 16.1478 16.5 15.75 16.5ZM18.5895 12.018C18.4042 11.681 18.0965 11.4281 17.73 11.3115C17.3636 11.1948 16.9663 11.2234 16.6203 11.3913C16.2743 11.5592 16.006 11.8536 15.8708 12.2136C15.7357 12.5737 15.744 12.9719 15.894 13.326L15.972 13.4835L20.592 21.7335C20.7791 22.0671 21.0866 22.3166 21.4515 22.431C21.8165 22.5454 22.2113 22.5161 22.5554 22.349C22.8994 22.182 23.1667 21.8898 23.3025 21.5323C23.4383 21.1747 23.4324 20.7788 23.286 20.4255L23.208 20.2665L22.779 19.5015H23.55C23.9347 19.5045 24.3058 19.3597 24.5867 19.0969C24.8676 18.8341 25.0367 18.4734 25.0593 18.0894C25.0818 17.7054 24.956 17.3274 24.7077 17.0336C24.4595 16.7397 24.1079 16.5525 23.7255 16.5105L23.55 16.5H21.099L18.5895 12.018ZM14.8095 5.268C14.6242 4.93102 14.3165 4.67809 13.95 4.56147C13.5836 4.44484 13.1863 4.47343 12.8403 4.64133C12.4943 4.80922 12.226 5.1036 12.0908 5.46364C11.9557 5.82369 11.964 6.22189 12.114 6.576L12.1905 6.7335L13.281 8.679L10.5705 13.518C10.3819 13.8521 10.3285 14.2458 10.4213 14.6181C10.5141 14.9904 10.746 15.3129 11.0693 15.5195C11.3927 15.726 11.7828 15.8008 12.1596 15.7284C12.5364 15.6561 12.8712 15.4421 13.095 15.1305L13.1895 14.9835L17.8095 6.7335C18.0006 6.39928 18.0559 6.00436 17.964 5.6305C17.872 5.25663 17.6398 4.93245 17.3154 4.72506C16.991 4.51767 16.5993 4.44295 16.2213 4.51638C15.8434 4.5898 15.5081 4.80574 15.285 5.1195L15.192 5.2665L15 5.61L14.8095 5.268Z" fill="#F0F4C3"/>
</svg>
