<svg width="35" height="35" viewBox="0 0 35 35" fill="none" xmlns="http://www.w3.org/2000/svg">
<path d="M17.5 16.6076C16.1788 14.0395 12.5825 9.25178 9.23856 6.8922C6.0346 4.63178 4.81398 5.02116 4.01335 5.38574C3.08585 5.80137 2.91669 7.22616 2.91669 8.06178C2.91669 8.90032 3.37606 14.9291 3.67502 15.9368C4.66669 19.2618 8.1871 20.3847 11.4334 20.0245C6.67919 20.7289 2.4544 22.4599 7.99169 28.6257C14.0846 34.933 16.3421 27.2739 17.5 23.3903C18.6579 27.2739 19.9909 34.6574 26.8975 28.6257C32.0834 23.3903 28.3223 20.7289 23.5681 20.0245C26.8129 20.3847 30.3348 19.2618 31.325 15.9368C31.624 14.9305 32.0834 8.90032 32.0834 8.06324C32.0834 7.2247 31.9142 5.80282 30.9867 5.38282C30.1861 5.02116 28.9654 4.62887 25.7615 6.88928C22.4175 9.25324 18.8198 14.0409 17.5 16.6076Z" fill="white"/>
</svg>
