<svg width="35" height="35" viewBox="0 0 35 35" fill="none" xmlns="http://www.w3.org/2000/svg">
<path d="M17.5001 16.6076C16.1788 14.0395 12.5826 9.25178 9.23862 6.8922C6.03466 4.63178 4.81404 5.02116 4.01341 5.38574C3.08591 5.80137 2.91675 7.22616 2.91675 8.06178C2.91675 8.90032 3.37612 14.9291 3.67508 15.9368C4.66675 19.2618 8.18716 20.3847 11.4334 20.0245C6.67925 20.7289 2.45446 22.4599 7.99175 28.6257C14.0847 34.933 16.3422 27.2739 17.5001 23.3903C18.658 27.2739 19.9909 34.6574 26.8976 28.6257C32.0834 23.3903 28.3224 20.7289 23.5682 20.0245C26.813 20.3847 30.3349 19.2618 31.3251 15.9368C31.624 14.9305 32.0834 8.90032 32.0834 8.06324C32.0834 7.2247 31.9142 5.80282 30.9867 5.38282C30.1861 5.02116 28.9655 4.62887 25.7615 6.88928C22.4176 9.25324 18.8199 14.0409 17.5001 16.6076Z" fill="black"/>
</svg>
