<svg width="35" height="35" viewBox="0 0 35 35" fill="none" xmlns="http://www.w3.org/2000/svg">
<path d="M17.5001 2.91675C15.585 2.91675 13.6886 3.29396 11.9193 4.02684C10.1499 4.75972 8.54229 5.83392 7.18811 7.18811C4.4532 9.92301 2.91675 13.6323 2.91675 17.5001C2.91675 23.9459 7.10216 29.4147 12.8917 31.3542C13.6209 31.4709 13.8542 31.0188 13.8542 30.6251V28.1605C9.81466 29.0355 8.95425 26.2063 8.95425 26.2063C8.28341 24.5147 7.3355 24.0626 7.3355 24.0626C6.00841 23.1584 7.43758 23.1876 7.43758 23.1876C8.89591 23.2897 9.66883 24.6897 9.66883 24.6897C10.9376 26.9063 13.0813 26.2501 13.9126 25.9001C14.0438 24.9522 14.423 24.3105 14.8313 23.9459C11.5938 23.5813 8.19591 22.3272 8.19591 16.7709C8.19591 15.1522 8.75008 13.8542 9.698 12.8188C9.55216 12.4542 9.04175 10.9376 9.84383 8.96883C9.84383 8.96883 11.0688 8.57508 13.8542 10.4563C15.0063 10.1355 16.2605 9.97508 17.5001 9.97508C18.7397 9.97508 19.9938 10.1355 21.1459 10.4563C23.9313 8.57508 25.1563 8.96883 25.1563 8.96883C25.9584 10.9376 25.448 12.4542 25.3022 12.8188C26.2501 13.8542 26.8042 15.1522 26.8042 16.7709C26.8042 22.3417 23.3917 23.5667 20.1397 23.9313C20.6647 24.3834 21.1459 25.273 21.1459 26.6292V30.6251C21.1459 31.0188 21.3792 31.4855 22.123 31.3542C27.9126 29.4001 32.0834 23.9459 32.0834 17.5001C32.0834 15.585 31.7062 13.6886 30.9733 11.9193C30.2404 10.1499 29.1662 8.5423 27.8121 7.18811C26.4579 5.83392 24.8502 4.75972 23.0809 4.02684C21.3116 3.29396 19.4152 2.91675 17.5001 2.91675Z" fill="black"/>
</svg>
