<svg width="35" height="35" viewBox="0 0 35 35" fill="none" xmlns="http://www.w3.org/2000/svg">
<path d="M32.1095 19.3928L26.3943 22.6274L21.2683 17.5335L26.4351 12.3987L32.1095 15.6099C32.4444 15.7993 32.723 16.0742 32.9169 16.4065C33.1107 16.7388 33.2129 17.1166 33.2129 17.5014C33.2129 17.8861 33.1107 18.2639 32.9169 18.5963C32.723 18.9286 32.4444 19.2035 32.1095 19.3928ZM1.94971 1.34742C1.84199 1.6103 1.78652 1.89165 1.78638 2.17575V32.8255C1.78638 33.142 1.852 33.4366 1.96721 33.7005L18.2349 17.532L1.94971 1.34742ZM19.7516 16.0255L24.5028 11.3035L5.03117 0.284293C4.61365 0.0448815 4.12771 -0.0470665 3.65159 0.0232509L19.7516 16.0255ZM19.7516 19.0399L3.70992 34.9839C4.1445 35.0364 4.60242 34.9605 5.03117 34.717L24.462 23.7212L19.7516 19.0399Z" fill="black"/>
</svg>
