<svg width="35" height="35" viewBox="0 0 35 35" fill="none" xmlns="http://www.w3.org/2000/svg">
<path d="M32.1096 19.3928L26.3944 22.6274L21.2683 17.5335L26.4352 12.3987L32.1096 15.6099C32.4445 15.7993 32.7231 16.0742 32.9169 16.4065C33.1108 16.7388 33.2129 17.1166 33.2129 17.5014C33.2129 17.8861 33.1108 18.2639 32.9169 18.5963C32.7231 18.9286 32.4445 19.2035 32.1096 19.3928ZM1.94977 1.34742C1.84205 1.6103 1.78658 1.89165 1.78644 2.17575V32.8255C1.78644 33.142 1.85206 33.4366 1.96727 33.7005L18.235 17.532L1.94977 1.34742ZM19.7516 16.0255L24.5029 11.3035L5.03123 0.284293C4.61371 0.0448815 4.12777 -0.0470665 3.65165 0.0232509L19.7516 16.0255ZM19.7516 19.0399L3.70998 34.9839C4.14456 35.0364 4.60248 34.9605 5.03123 34.717L24.4621 23.7212L19.7516 19.0399Z" fill="white"/>
</svg>
