<svg width="35" height="35" viewBox="0 0 35 35" fill="none" xmlns="http://www.w3.org/2000/svg">
<path d="M11.375 2.91675H23.625C28.2917 2.91675 32.0834 6.70842 32.0834 11.3751V23.6251C32.0834 25.8684 31.1922 28.0198 29.606 29.606C28.0197 31.1923 25.8683 32.0834 23.625 32.0834H11.375C6.70836 32.0834 2.91669 28.2918 2.91669 23.6251V11.3751C2.91669 9.1318 3.80783 6.98038 5.39408 5.39414C6.98032 3.80789 9.13174 2.91675 11.375 2.91675ZM11.0834 5.83342C9.69097 5.83342 8.35561 6.38654 7.37105 7.37111C6.38648 8.35567 5.83336 9.69103 5.83336 11.0834V23.9168C5.83336 26.8188 8.18127 29.1668 11.0834 29.1668H23.9167C25.3091 29.1668 26.6444 28.6136 27.629 27.6291C28.6136 26.6445 29.1667 25.3091 29.1667 23.9168V11.0834C29.1667 8.18133 26.8188 5.83342 23.9167 5.83342H11.0834ZM25.1563 8.02092C25.6398 8.02092 26.1034 8.21298 26.4453 8.55484C26.7871 8.8967 26.9792 9.36037 26.9792 9.84384C26.9792 10.3273 26.7871 10.791 26.4453 11.1328C26.1034 11.4747 25.6398 11.6668 25.1563 11.6668C24.6728 11.6668 24.2091 11.4747 23.8673 11.1328C23.5254 10.791 23.3334 10.3273 23.3334 9.84384C23.3334 9.36037 23.5254 8.8967 23.8673 8.55484C24.2091 8.21298 24.6728 8.02092 25.1563 8.02092ZM17.5 10.2084C19.4339 10.2084 21.2886 10.9766 22.656 12.3441C24.0235 13.7116 24.7917 15.5662 24.7917 17.5001C24.7917 19.434 24.0235 21.2886 22.656 22.6561C21.2886 24.0235 19.4339 24.7918 17.5 24.7918C15.5662 24.7918 13.7115 24.0235 12.344 22.6561C10.9766 21.2886 10.2084 19.434 10.2084 17.5001C10.2084 15.5662 10.9766 13.7116 12.344 12.3441C13.7115 10.9766 15.5662 10.2084 17.5 10.2084ZM17.5 13.1251C16.3397 13.1251 15.2269 13.586 14.4064 14.4065C13.586 15.227 13.125 16.3398 13.125 17.5001C13.125 18.6604 13.586 19.7732 14.4064 20.5937C15.2269 21.4142 16.3397 21.8751 17.5 21.8751C18.6604 21.8751 19.7732 21.4142 20.5936 20.5937C21.4141 19.7732 21.875 18.6604 21.875 17.5001C21.875 16.3398 21.4141 15.227 20.5936 14.4065C19.7732 13.586 18.6604 13.1251 17.5 13.1251Z" fill="white"/>
</svg>
