<svg width="35" height="35" viewBox="0 0 35 35" fill="none" xmlns="http://www.w3.org/2000/svg">
<path d="M11.3751 2.91675H23.6251C28.2918 2.91675 32.0834 6.70842 32.0834 11.3751V23.6251C32.0834 25.8684 31.1923 28.0198 29.606 29.606C28.0198 31.1923 25.8684 32.0834 23.6251 32.0834H11.3751C6.70842 32.0834 2.91675 28.2918 2.91675 23.6251V11.3751C2.91675 9.1318 3.80789 6.98038 5.39414 5.39414C6.98038 3.80789 9.1318 2.91675 11.3751 2.91675ZM11.0834 5.83342C9.69103 5.83342 8.35567 6.38654 7.37111 7.37111C6.38654 8.35567 5.83342 9.69103 5.83342 11.0834V23.9168C5.83342 26.8188 8.18133 29.1668 11.0834 29.1668H23.9168C25.3091 29.1668 26.6445 28.6136 27.6291 27.6291C28.6136 26.6445 29.1668 25.3091 29.1668 23.9168V11.0834C29.1668 8.18133 26.8188 5.83342 23.9168 5.83342H11.0834ZM25.1563 8.02092C25.6398 8.02092 26.1035 8.21298 26.4453 8.55484C26.7872 8.8967 26.9793 9.36037 26.9793 9.84384C26.9793 10.3273 26.7872 10.791 26.4453 11.1328C26.1035 11.4747 25.6398 11.6668 25.1563 11.6668C24.6729 11.6668 24.2092 11.4747 23.8673 11.1328C23.5255 10.791 23.3334 10.3273 23.3334 9.84384C23.3334 9.36037 23.5255 8.8967 23.8673 8.55484C24.2092 8.21298 24.6729 8.02092 25.1563 8.02092ZM17.5001 10.2084C19.434 10.2084 21.2886 10.9766 22.6561 12.3441C24.0235 13.7116 24.7918 15.5662 24.7918 17.5001C24.7918 19.434 24.0235 21.2886 22.6561 22.6561C21.2886 24.0235 19.434 24.7918 17.5001 24.7918C15.5662 24.7918 13.7116 24.0235 12.3441 22.6561C10.9766 21.2886 10.2084 19.434 10.2084 17.5001C10.2084 15.5662 10.9766 13.7116 12.3441 12.3441C13.7116 10.9766 15.5662 10.2084 17.5001 10.2084ZM17.5001 13.1251C16.3398 13.1251 15.227 13.586 14.4065 14.4065C13.586 15.227 13.1251 16.3398 13.1251 17.5001C13.1251 18.6604 13.586 19.7732 14.4065 20.5937C15.227 21.4142 16.3398 21.8751 17.5001 21.8751C18.6604 21.8751 19.7732 21.4142 20.5937 20.5937C21.4142 19.7732 21.8751 18.6604 21.8751 17.5001C21.8751 16.3398 21.4142 15.227 20.5937 14.4065C19.7732 13.586 18.6604 13.1251 17.5001 13.1251Z" fill="black"/>
</svg>
