<svg width="55" height="55" viewBox="0 0 55 55" fill="none" xmlns="http://www.w3.org/2000/svg">
<path d="M49.7165 2.01099L45.9662 8.21224C42.7419 7.16724 37.9414 7.37177 34.9215 8.21224L31.3087 2.09864C25.3756 13.1811 27.0548 20.1851 31.582 23.6672C30.8894 24.1004 30.1761 24.5765 29.4387 25.099C10.5686 10.0444 -6.41956 26.9999 4.72481 42.149H4.81075C6.80966 45.0485 9.11278 46.8429 11.5998 47.7813C15.1233 49.1099 18.7481 48.7283 22.3179 48.223C25.8878 47.7177 29.3803 47.0835 32.7095 47.3207C36.0387 47.5579 39.3679 48.4121 42.4153 51.7361C44.4933 54.0015 47.4444 51.5626 44.9694 49.146C41.2139 45.4782 37.192 44.0602 33.2389 43.7801C29.2858 43.4999 25.4959 44.2836 22.0636 44.7701C18.6312 45.2565 15.5993 45.473 12.9954 44.4899C11.7734 44.0293 10.584 43.304 9.43763 42.1524H48.1267C49.9554 35.6968 50.1497 28.8665 48.07 24.5576C54.3176 21.2971 56.8305 13.5988 49.7165 2.01442V2.01099ZM38.115 18.6863C34.1344 20.6061 32.3279 19.0507 31.5545 15.84C35.4612 13.4166 37.7867 15.3622 38.115 18.6863ZM43.0839 18.6863C43.4122 15.3622 45.7376 13.4149 49.6444 15.84C48.8709 19.0507 47.0628 20.6079 43.0839 18.6863Z" fill="white"/>
</svg>
