<svg width="30" height="33" viewBox="0 0 30 33" fill="none" xmlns="http://www.w3.org/2000/svg">
<g clip-path="url(#clip0_210_54)">
<path d="M14.0102 15.7323L0.124268 30.2085C0.280205 30.7584 0.560429 31.2656 0.943519 31.6912C1.32661 32.1168 1.80242 32.4496 2.33459 32.6642C2.86675 32.8787 3.44118 32.9694 4.01395 32.9292C4.58673 32.8891 5.14269 32.7191 5.63935 32.4324L21.2636 23.5779L14.0102 15.7323Z" fill="#111206" fill-opacity="0.7"/>
<path d="M28.0511 13.2716L21.2947 9.42075L13.6895 16.0616L21.3256 23.5571L28.0306 19.7475C28.6246 19.438 29.1221 18.9727 29.4693 18.4019C29.8164 17.8311 29.9999 17.1767 29.9999 16.5095C29.9999 15.8423 29.8164 15.1879 29.4693 14.6171C29.1221 14.0463 28.6246 13.581 28.0306 13.2715L28.0511 13.2716Z" fill="#585D33" fill-opacity="0.7"/>
<path d="M0.124255 2.73877C0.0403714 3.04754 -0.00140914 3.36613 3.62537e-05 3.68597V29.2612C0.000864544 29.5809 0.0426065 29.8993 0.124255 30.2085L14.4862 16.103L0.124255 2.73877Z" fill="#474838" fill-opacity="0.7"/>
<path d="M14.1136 16.4737L21.2947 9.42087L5.69114 0.525092C5.10407 0.182989 4.43636 0.00181041 3.75603 7.15159e-06C2.06771 -0.00325787 0.583408 1.11175 0.124268 2.72851L14.1136 16.4737Z" fill="#F0F4C3" fill-opacity="0.7"/>
</g>
<defs>
<clipPath id="clip0_210_54">
<rect width="30" height="33" fill="white"/>
</clipPath>
</defs>
</svg>
