<svg width="55" height="55" viewBox="0 0 55 55" fill="none" xmlns="http://www.w3.org/2000/svg">
<path d="M49.7165 2.01094L45.9662 8.21219C42.7419 7.16719 37.9414 7.37172 34.9215 8.21219L31.3087 2.0986C25.3756 13.1811 27.0548 20.185 31.582 23.6672C30.8894 24.1003 30.1761 24.5764 29.4387 25.0989C10.5686 10.0444 -6.41956 26.9999 4.72481 42.1489H4.81075C6.80966 45.0484 9.11278 46.8428 11.5998 47.7813C15.1233 49.1099 18.7481 48.7283 22.3179 48.223C25.8878 47.7177 29.3803 47.0834 32.7095 47.3206C36.0387 47.5578 39.3679 48.412 42.4153 51.7361C44.4933 54.0014 47.4444 51.5625 44.9694 49.1459C41.2139 45.4781 37.192 44.0602 33.2389 43.78C29.2858 43.4999 25.4959 44.2836 22.0636 44.77C18.6312 45.2564 15.5993 45.473 12.9954 44.4899C11.7734 44.0292 10.584 43.3039 9.43763 42.1524H48.1267C49.9554 35.6967 50.1497 28.8664 48.07 24.5575C54.3176 21.297 56.8305 13.5988 49.7165 2.01438V2.01094ZM38.115 18.6863C34.1344 20.6061 32.3279 19.0506 31.5545 15.84C35.4612 13.4166 37.7867 15.3622 38.115 18.6863ZM43.0839 18.6863C43.4122 15.3622 45.7376 13.4148 49.6444 15.84C48.8709 19.0506 47.0628 20.6078 43.0839 18.6863Z" fill="black"/>
</svg>
