<svg width="161" height="55" viewBox="0 0 161 55" fill="none" xmlns="http://www.w3.org/2000/svg">
<path d="M49.7166 2.01099L45.9663 8.21224C42.7419 7.16724 37.9414 7.37177 34.9216 8.21224L31.3088 2.09864C25.3756 13.1811 27.0548 20.1851 31.582 23.6672C30.8894 24.1004 30.1761 24.5765 29.4388 25.099C10.5686 10.0444 -6.41953 26.9999 4.72484 42.149H4.81078C6.80969 45.0485 9.11281 46.8429 11.5998 47.7813C15.1233 49.1099 18.7481 48.7283 22.318 48.223C25.8878 47.7177 29.3803 47.0835 32.7095 47.3207C36.0388 47.5579 39.368 48.4121 42.4153 51.7361C44.4933 54.0015 47.4444 51.5626 44.9694 49.146C41.2139 45.4782 37.192 44.0602 33.2389 43.7801C29.2858 43.4999 25.4959 44.2836 22.0636 44.7701C18.6313 45.2565 15.5994 45.473 12.9955 44.4899C11.7734 44.0293 10.5841 43.304 9.43766 42.1524H48.1267C49.9555 35.6968 50.1497 28.8665 48.07 24.5576C54.3177 21.2971 56.8305 13.5988 49.7166 2.01442V2.01099ZM38.115 18.6863C34.1344 20.6061 32.328 19.0507 31.5545 15.84C35.4613 13.4166 37.7867 15.3622 38.115 18.6863ZM43.0839 18.6863C43.4122 15.3622 45.7377 13.4149 49.6444 15.84C48.8709 19.0507 47.0628 20.6079 43.0839 18.6863Z" fill="white"/>
<path d="M75.58 33.54L84.14 22.6H77.58C77.5667 22.6 77.56 22.6067 77.56 22.62C77.56 22.62 77.5533 22.62 77.54 22.62C77.54 22.62 77.54 22.6267 77.54 22.64V25.56H75.98V19.82H77.58V21H86.3V22.46L77.74 33.4H85.16C85.1733 33.4 85.18 33.4 85.18 33.4C85.18 33.3867 85.18 33.38 85.18 33.38C85.1933 33.38 85.2 33.3733 85.2 33.36V30.3H86.84V36.18H85.2V35H75.58V33.54ZM92.9623 35.2C91.949 35.2 91.0357 34.9733 90.2223 34.52C89.4223 34.0667 88.789 33.4467 88.3223 32.66C87.8557 31.86 87.6223 30.9733 87.6223 30C87.6223 29.0267 87.8557 28.1467 88.3223 27.36C88.789 26.56 89.4223 25.9333 90.2223 25.48C91.0357 25.0267 91.949 24.8 92.9623 24.8C93.9623 24.8 94.869 25.0267 95.6823 25.48C96.4957 25.9333 97.1357 26.56 97.6023 27.36C98.069 28.1467 98.3023 29.0267 98.3023 30C98.3023 30.9733 98.069 31.86 97.6023 32.66C97.1357 33.4467 96.4957 34.0667 95.6823 34.52C94.869 34.9733 93.9623 35.2 92.9623 35.2ZM92.9623 33.74C93.6823 33.74 94.329 33.58 94.9023 33.26C95.489 32.9267 95.9423 32.48 96.2623 31.92C96.5957 31.3467 96.7623 30.7067 96.7623 30C96.7623 29.2933 96.5957 28.66 96.2623 28.1C95.9423 27.5267 95.489 27.08 94.9023 26.76C94.329 26.4267 93.6823 26.26 92.9623 26.26C92.2423 26.26 91.589 26.4267 91.0023 26.76C90.429 27.08 89.9757 27.5267 89.6423 28.1C89.3223 28.66 89.1623 29.2933 89.1623 30C89.1623 30.7067 89.3223 31.3467 89.6423 31.92C89.9757 32.48 90.429 32.9267 91.0023 33.26C91.589 33.58 92.2423 33.74 92.9623 33.74ZM104.687 35.2C103.673 35.2 102.76 34.9733 101.947 34.52C101.147 34.0667 100.513 33.4467 100.047 32.66C99.5799 31.86 99.3466 30.9733 99.3466 30C99.3466 29.0267 99.5799 28.1467 100.047 27.36C100.513 26.56 101.147 25.9333 101.947 25.48C102.76 25.0267 103.673 24.8 104.687 24.8C105.687 24.8 106.593 25.0267 107.407 25.48C108.22 25.9333 108.86 26.56 109.327 27.36C109.793 28.1467 110.027 29.0267 110.027 30C110.027 30.9733 109.793 31.86 109.327 32.66C108.86 33.4467 108.22 34.0667 107.407 34.52C106.593 34.9733 105.687 35.2 104.687 35.2ZM104.687 33.74C105.407 33.74 106.053 33.58 106.627 33.26C107.213 32.9267 107.667 32.48 107.987 31.92C108.32 31.3467 108.487 30.7067 108.487 30C108.487 29.2933 108.32 28.66 107.987 28.1C107.667 27.5267 107.213 27.08 106.627 26.76C106.053 26.4267 105.407 26.26 104.687 26.26C103.967 26.26 103.313 26.4267 102.727 26.76C102.153 27.08 101.7 27.5267 101.367 28.1C101.047 28.66 100.887 29.2933 100.887 30C100.887 30.7067 101.047 31.3467 101.367 31.92C101.7 32.48 102.153 32.9267 102.727 33.26C103.313 33.58 103.967 33.74 104.687 33.74ZM110.831 33.4H112.951V22.6H110.831V21H120.511V19.82H122.111V25.66H120.511V22.64C120.511 22.6267 120.504 22.62 120.491 22.62C120.491 22.6067 120.484 22.6 120.471 22.6H114.611V27.12H117.211C117.224 27.12 117.231 27.12 117.231 27.12C117.231 27.1067 117.231 27.1 117.231 27.1C117.244 27.1 117.251 27.0933 117.251 27.08V25.44H118.631V30.32H117.251V28.68C117.251 28.6667 117.244 28.66 117.231 28.66C117.231 28.6467 117.224 28.64 117.211 28.64H114.611V33.4H117.811V35H110.831V33.4ZM125.017 35.22C124.017 35.22 123.231 34.9667 122.657 34.46C122.097 33.94 121.817 33.2667 121.817 32.44C121.817 31.3467 122.284 30.56 123.217 30.08C124.151 29.6 125.371 29.3267 126.877 29.26C127.397 29.2333 127.837 29.1867 128.197 29.12C128.557 29.04 128.837 28.9333 129.037 28.8C129.237 28.6533 129.337 28.48 129.337 28.28C129.337 27.6133 129.097 27.08 128.617 26.68C128.137 26.2667 127.524 26.06 126.777 26.06C126.364 26.06 125.944 26.1333 125.517 26.28C125.091 26.4267 124.737 26.6333 124.457 26.9C124.191 27.1667 124.057 27.4867 124.057 27.86V28.52H122.657V24.5H124.017V25.9C124.204 25.7133 124.431 25.54 124.697 25.38C125.017 25.1933 125.371 25.0533 125.757 24.96C126.157 24.8533 126.571 24.8 126.997 24.8C128.184 24.8 129.131 25.16 129.837 25.88C130.544 26.5867 130.897 27.54 130.897 28.74V33.54H132.457V35H129.457V32.88C129.097 33.5867 128.511 34.1533 127.697 34.58C126.884 35.0067 125.991 35.22 125.017 35.22ZM125.457 33.9C126.191 33.9 126.864 33.74 127.477 33.42C128.091 33.1 128.571 32.68 128.917 32.16C129.277 31.6267 129.457 31.0533 129.457 30.44V29.82C129.257 29.9667 128.964 30.0867 128.577 30.18C128.204 30.26 127.697 30.3267 127.057 30.38C125.764 30.4733 124.824 30.6733 124.237 30.98C123.651 31.2733 123.357 31.7267 123.357 32.34C123.357 32.8467 123.544 33.2333 123.917 33.5C124.291 33.7667 124.804 33.9 125.457 33.9ZM140.958 33.9C140.691 34.22 140.325 34.5 139.858 34.74C139.565 34.8867 139.245 35 138.898 35.08C138.551 35.16 138.185 35.2 137.798 35.2C136.878 35.2 136.045 34.9733 135.298 34.52C134.551 34.0667 133.965 33.4467 133.538 32.66C133.111 31.86 132.898 30.9733 132.898 30C132.898 29.0267 133.111 28.1467 133.538 27.36C133.965 26.56 134.551 25.9333 135.298 25.48C136.045 25.0267 136.878 24.8 137.798 24.8C138.465 24.8 139.085 24.9267 139.658 25.18C140.085 25.38 140.451 25.6333 140.758 25.94V24.28H142.118V28.72H140.678V28.04C140.651 27.72 140.498 27.42 140.218 27.14C139.951 26.86 139.611 26.64 139.198 26.48C138.798 26.3067 138.371 26.22 137.918 26.22C137.265 26.22 136.671 26.3867 136.138 26.72C135.618 27.0533 135.205 27.5067 134.898 28.08C134.591 28.6533 134.438 29.2933 134.438 30C134.438 30.7067 134.591 31.3467 134.898 31.92C135.205 32.4933 135.618 32.9467 136.138 33.28C136.671 33.6 137.265 33.76 137.918 33.76C138.425 33.76 138.898 33.6733 139.338 33.5C139.778 33.3133 140.138 33.0667 140.418 32.76C140.698 32.44 140.851 32.0933 140.878 31.72V30.98H142.318V35.22H140.958V33.9ZM148.642 35.12C147.548 35.12 146.715 34.8333 146.142 34.26C145.582 33.6733 145.302 32.8333 145.302 31.74V26.46H143.002V25H144.702C144.902 25 145.055 24.9467 145.162 24.84C145.268 24.7333 145.322 24.58 145.322 24.38V22.6H146.742V25H151.242V26.46H146.742V31.72C146.742 32.3733 146.922 32.8667 147.282 33.2C147.655 33.52 148.182 33.68 148.862 33.68C149.315 33.68 149.742 33.6267 150.142 33.52C150.542 33.4 150.908 33.26 151.242 33.1V34.58C150.868 34.74 150.455 34.8733 150.002 34.98C149.562 35.0733 149.108 35.12 148.642 35.12ZM151.874 31.18H153.174V31.7C153.174 32.1267 153.328 32.5133 153.634 32.86C153.954 33.1933 154.381 33.46 154.914 33.66C155.461 33.8467 156.048 33.94 156.674 33.94C157.448 33.94 158.054 33.8133 158.494 33.56C158.934 33.2933 159.154 32.9333 159.154 32.48C159.154 32.1733 159.054 31.92 158.854 31.72C158.668 31.5067 158.348 31.3267 157.894 31.18C157.454 31.02 156.828 30.86 156.014 30.7C155.148 30.54 154.421 30.3267 153.834 30.06C153.248 29.7933 152.788 29.46 152.454 29.06C152.134 28.6467 151.974 28.1533 151.974 27.58C151.974 26.7 152.301 26.02 152.954 25.54C153.608 25.0467 154.481 24.8 155.574 24.8C155.988 24.8 156.388 24.84 156.774 24.92C157.161 24.9867 157.528 25.0933 157.874 25.24C158.208 25.36 158.508 25.5267 158.774 25.74V24.28H160.194V28.52H158.774V27.86C158.774 27.5533 158.641 27.2733 158.374 27.02C158.108 26.7533 157.748 26.54 157.294 26.38C156.854 26.22 156.388 26.14 155.894 26.14C155.161 26.14 154.581 26.2667 154.154 26.52C153.741 26.7733 153.534 27.1333 153.534 27.6C153.534 27.9867 153.681 28.2933 153.974 28.52C154.281 28.7333 154.794 28.9333 155.514 29.12C155.674 29.16 155.841 29.2 156.014 29.24C156.188 29.2667 156.368 29.3 156.554 29.34C156.634 29.3533 156.708 29.3667 156.774 29.38C156.854 29.3933 156.928 29.4133 156.994 29.44C157.821 29.6267 158.501 29.8467 159.034 30.1C159.581 30.3533 159.994 30.6733 160.274 31.06C160.568 31.4333 160.714 31.9 160.714 32.46C160.714 33.34 160.361 34.0267 159.654 34.52C158.948 35 158.028 35.24 156.894 35.24C156.508 35.24 156.134 35.2133 155.774 35.16C155.414 35.12 155.081 35.0533 154.774 34.96C154.094 34.7333 153.561 34.42 153.174 34.02V35.14H151.874V31.18Z" fill="white"/>
</svg>
